<?xml version="1.0" encoding="UTF-8" standalone="no"?><!DOCTYPE svg PUBLIC "-//W3C//DTD SVG 1.1//EN" "http://www.w3.org/Graphics/SVG/1.1/DTD/svg11.dtd"><svg width="100%" height="100%" viewBox="0 0 1250 1255" version="1.1" xmlns="http://www.w3.org/2000/svg" xmlns:xlink="http://www.w3.org/1999/xlink" xml:space="preserve" xmlns:serif="http://www.serif.com/" style="fill-rule:evenodd;clip-rule:evenodd;stroke-linecap:round;stroke-linejoin:round;stroke-miterlimit:1.5;"><rect id="_11---spark" serif:id="11 - spark" x="0" y="4.008" width="1250" height="1250" style="fill:none;"/><g id="CPU-sides"><g><path d="M924.278,821.555c0,4.142 3.363,7.504 7.504,7.504l89.219,0c4.142,0 7.505,-3.362 7.505,-7.504l-0,-34.988c-0,-4.142 -3.363,-7.504 -7.505,-7.504l-89.219,-0c-4.141,-0 -7.504,3.362 -7.504,7.504l0,34.988Z" style="stroke:#4082bf;stroke-width:6.25px;"/><path d="M924.278,471.293c0,4.126 3.35,7.477 7.477,7.477l89.274,-0c4.126,-0 7.477,-3.351 7.477,-7.477l-0,-34.86c-0,-4.127 -3.351,-7.477 -7.477,-7.477l-89.274,-0c-4.127,-0 -7.477,3.35 -7.477,7.477l0,34.86Z" style="stroke:#4082bf;stroke-width:6.25px;"/><path d="M924.278,646.502c0,4.141 3.363,7.504 7.504,7.504l89.219,-0c4.142,-0 7.505,-3.363 7.505,-7.504l-0,-34.988c-0,-4.142 -3.363,-7.505 -7.505,-7.505l-89.219,0c-4.141,0 -7.504,3.363 -7.504,7.505l0,34.988Z" style="stroke:#4082bf;stroke-width:6.25px;"/></g><g><path d="M432.452,928.286c-4.141,-0 -7.504,3.362 -7.504,7.504l0,89.219c0,4.142 3.363,7.504 7.504,7.504l34.988,0c4.142,0 7.505,-3.362 7.505,-7.504l-0,-89.219c-0,-4.142 -3.363,-7.504 -7.505,-7.504l-34.988,-0Z" style="stroke:#4082bf;stroke-width:6.25px;"/><path d="M782.715,928.286c-4.127,-0 -7.477,3.35 -7.477,7.476l0,89.274c0,4.127 3.35,7.477 7.477,7.477l34.86,0c4.127,0 7.477,-3.35 7.477,-7.477l-0,-89.274c-0,-4.126 -3.35,-7.476 -7.477,-7.476l-34.86,-0Z" style="stroke:#4082bf;stroke-width:6.25px;"/><path d="M607.506,928.286c-4.142,-0 -7.504,3.362 -7.504,7.504l-0,89.219c-0,4.142 3.362,7.504 7.504,7.504l34.988,0c4.142,0 7.504,-3.362 7.504,-7.504l0,-89.219c0,-4.142 -3.362,-7.504 -7.504,-7.504l-34.988,-0Z" style="stroke:#4082bf;stroke-width:6.25px;"/></g><g><path d="M221.494,821.555c0,4.142 3.363,7.504 7.505,7.504l89.219,0c4.141,0 7.504,-3.362 7.504,-7.504l-0,-34.988c-0,-4.142 -3.363,-7.504 -7.504,-7.504l-89.219,-0c-4.142,-0 -7.505,3.362 -7.505,7.504l0,34.988Z" style="stroke:#4082bf;stroke-width:6.25px;"/><path d="M221.494,471.293c0,4.126 3.351,7.477 7.477,7.477l89.274,-0c4.127,-0 7.477,-3.351 7.477,-7.477l-0,-34.86c-0,-4.127 -3.35,-7.477 -7.477,-7.477l-89.274,-0c-4.126,-0 -7.477,3.35 -7.477,7.477l0,34.86Z" style="stroke:#4082bf;stroke-width:6.25px;"/><path d="M221.494,646.502c0,4.141 3.363,7.504 7.505,7.504l89.219,-0c4.141,-0 7.504,-3.363 7.504,-7.504l-0,-34.988c-0,-4.142 -3.363,-7.505 -7.504,-7.505l-89.219,0c-4.142,0 -7.505,3.363 -7.505,7.505l0,34.988Z" style="stroke:#4082bf;stroke-width:6.25px;"/></g><g><path d="M432.452,225.502c-4.141,0 -7.504,3.363 -7.504,7.504l0,89.219c0,4.142 3.363,7.505 7.504,7.505l34.988,-0c4.142,-0 7.505,-3.363 7.505,-7.505l-0,-89.219c-0,-4.141 -3.363,-7.504 -7.505,-7.504l-34.988,0Z" style="stroke:#4082bf;stroke-width:6.25px;"/><path d="M782.715,225.502c-4.127,0 -7.477,3.35 -7.477,7.477l0,89.274c0,4.126 3.35,7.477 7.477,7.477l34.86,-0c4.127,-0 7.477,-3.351 7.477,-7.477l-0,-89.274c-0,-4.127 -3.35,-7.477 -7.477,-7.477l-34.86,0Z" style="stroke:#4082bf;stroke-width:6.25px;"/><path d="M607.506,225.502c-4.142,0 -7.504,3.363 -7.504,7.504l-0,89.219c-0,4.142 3.362,7.505 7.504,7.505l34.988,-0c4.142,-0 7.504,-3.363 7.504,-7.505l0,-89.219c0,-4.141 -3.362,-7.504 -7.504,-7.504l-34.988,0Z" style="stroke:#4082bf;stroke-width:6.25px;"/></g></g><path d="M442.757,368.591c-43.145,-0 -78.174,35.029 -78.174,78.174l0,364.485c0,43.146 35.029,78.174 78.174,78.174l364.486,0c43.145,0 78.174,-35.028 78.174,-78.174l-0,-364.485c-0,-43.145 -35.029,-78.174 -78.174,-78.174l-364.486,-0Zm358.379,480.775c24.407,-0 44.222,-19.816 44.222,-44.222l0,-352.272c0,-24.407 -19.815,-44.222 -44.222,-44.222l-352.272,-0c-24.407,-0 -44.222,19.815 -44.222,44.222l-0,352.272c-0,24.406 19.815,44.222 44.222,44.222l352.272,-0Z" style="stroke:#4082bf;stroke-width:6.25px;"/><path d="M541.032,587.163c0,0 83.968,-83.968 83.968,-83.968l35.355,35.356l-48.612,48.612l97.225,97.225l-83.968,83.968l-35.355,-35.356l48.612,-48.612c0,0 -97.225,-97.225 -97.225,-97.225Z" style="stroke:#4082bf;stroke-width:6.25px;"/></svg>